<mxfile host="app.diagrams.net" modified="2023-07-16T12:27:59.225Z" agent="Mozilla/5.0 (Macintosh; Intel Mac OS X 10_15_7) AppleWebKit/537.36 (KHTML, like Gecko) Chrome/112.0.0.0 Safari/537.36" etag="n6MgDIt8c3mQ0f1nAam0" version="21.6.1" type="github">
  <diagram id="C5RBs43oDa-KdzZeNtuy" name="Page-1">
    <mxGraphModel dx="1026" dy="1866" grid="1" gridSize="10" guides="1" tooltips="1" connect="1" arrows="1" fold="1" page="1" pageScale="1" pageWidth="827" pageHeight="1169" math="0" shadow="0">
      <root>
        <mxCell id="WIyWlLk6GJQsqaUBKTNV-0" />
        <mxCell id="WIyWlLk6GJQsqaUBKTNV-1" parent="WIyWlLk6GJQsqaUBKTNV-0" />
        <mxCell id="PiP8RJ__p3Hzc0Be2iDj-6" style="edgeStyle=orthogonalEdgeStyle;rounded=0;orthogonalLoop=1;jettySize=auto;html=1;" edge="1" parent="WIyWlLk6GJQsqaUBKTNV-1">
          <mxGeometry relative="1" as="geometry">
            <mxPoint x="230" y="-950" as="sourcePoint" />
            <mxPoint x="330" y="-1080" as="targetPoint" />
            <Array as="points">
              <mxPoint x="170" y="-950" />
              <mxPoint x="170" y="-1080" />
            </Array>
          </mxGeometry>
        </mxCell>
        <mxCell id="PiP8RJ__p3Hzc0Be2iDj-2" value="UI" style="rounded=1;whiteSpace=wrap;html=1;" vertex="1" parent="WIyWlLk6GJQsqaUBKTNV-1">
          <mxGeometry x="110" y="-950" width="120" height="60" as="geometry" />
        </mxCell>
        <mxCell id="PiP8RJ__p3Hzc0Be2iDj-3" value="Server" style="ellipse;shape=cloud;whiteSpace=wrap;html=1;" vertex="1" parent="WIyWlLk6GJQsqaUBKTNV-1">
          <mxGeometry x="320" y="-1120" width="120" height="80" as="geometry" />
        </mxCell>
        <mxCell id="PiP8RJ__p3Hzc0Be2iDj-7" style="edgeStyle=orthogonalEdgeStyle;rounded=0;orthogonalLoop=1;jettySize=auto;html=1;" edge="1" parent="WIyWlLk6GJQsqaUBKTNV-1" source="PiP8RJ__p3Hzc0Be2iDj-4">
          <mxGeometry relative="1" as="geometry">
            <mxPoint x="390" y="-1040" as="targetPoint" />
          </mxGeometry>
        </mxCell>
        <mxCell id="PiP8RJ__p3Hzc0Be2iDj-4" value="DB" style="shape=cylinder3;whiteSpace=wrap;html=1;boundedLbl=1;backgroundOutline=1;size=15;" vertex="1" parent="WIyWlLk6GJQsqaUBKTNV-1">
          <mxGeometry x="360" y="-970" width="60" height="80" as="geometry" />
        </mxCell>
        <mxCell id="PiP8RJ__p3Hzc0Be2iDj-8" style="edgeStyle=orthogonalEdgeStyle;rounded=0;orthogonalLoop=1;jettySize=auto;html=1;entryX=0.875;entryY=0.5;entryDx=0;entryDy=0;entryPerimeter=0;" edge="1" parent="WIyWlLk6GJQsqaUBKTNV-1" source="PiP8RJ__p3Hzc0Be2iDj-5">
          <mxGeometry relative="1" as="geometry">
            <mxPoint x="435" y="-1080" as="targetPoint" />
            <Array as="points">
              <mxPoint x="620" y="-1080" />
            </Array>
          </mxGeometry>
        </mxCell>
        <mxCell id="PiP8RJ__p3Hzc0Be2iDj-5" value="UI" style="rounded=1;whiteSpace=wrap;html=1;" vertex="1" parent="WIyWlLk6GJQsqaUBKTNV-1">
          <mxGeometry x="560" y="-950" width="120" height="60" as="geometry" />
        </mxCell>
      </root>
    </mxGraphModel>
  </diagram>
</mxfile>
